<!-- Generated by IcoMoon.io -->
<svg version="1.1" xmlns="http://www.w3.org/2000/svg" width="32" height="32" viewBox="0 0 32 32">
<path fill="#b7b7b7" d="M22.98 20.392h-1.363l-0.483-0.466c1.691-1.967 2.709-4.521 2.709-7.299 0-6.194-5.021-11.216-11.216-11.216s-11.216 5.021-11.216 11.216c0 6.195 5.021 11.216 11.216 11.216 2.778 0 5.332-1.018 7.299-2.709l0.466 0.483v1.363l8.628 8.61 2.571-2.571-8.61-8.628zM12.627 20.392c-4.296 0-7.765-3.468-7.765-7.765s3.468-7.765 7.765-7.765c4.296 0 7.765 3.468 7.765 7.765s-3.468 7.765-7.765 7.765z"></path>
</svg>
